<?xml version="1.0" encoding="UTF-8" standalone="no"?>
<!-- Created with Inkscape (http://www.inkscape.org/) -->

<svg
   xmlns:dc="http://purl.org/dc/elements/1.1/"
   xmlns:cc="http://creativecommons.org/ns#"
   xmlns:rdf="http://www.w3.org/1999/02/22-rdf-syntax-ns#"
   xmlns:svg="http://www.w3.org/2000/svg"
   xmlns="http://www.w3.org/2000/svg"
   xmlns:sodipodi="http://sodipodi.sourceforge.net/DTD/sodipodi-0.dtd"
   xmlns:inkscape="http://www.inkscape.org/namespaces/inkscape"
   width="859.35767"
   height="279.2366"
   viewBox="0 0 227.37171 73.881353"
   version="1.1"
   id="svg8"
   inkscape:version="0.92.4 (5da689c313, 2019-01-14)"
   sodipodi:docname="logo-full-dark.svg">
  <defs
     id="defs2" />
  <sodipodi:namedview
     id="base"
     pagecolor="#ffffff"
     bordercolor="#666666"
     borderopacity="1.0"
     inkscape:pageopacity="0.0"
     inkscape:pageshadow="2"
     inkscape:zoom="0.49497475"
     inkscape:cx="897.08855"
     inkscape:cy="-154.60557"
     inkscape:document-units="mm"
     inkscape:current-layer="layer1"
     showgrid="false"
     showborder="false"
     inkscape:snap-global="false"
     inkscape:window-width="1920"
     inkscape:window-height="1001"
     inkscape:window-x="-9"
     inkscape:window-y="-9"
     inkscape:window-maximized="1"
     units="px"
     fit-margin-top="0"
     fit-margin-left="0"
     fit-margin-right="0"
     fit-margin-bottom="0" />
  <metadata
     id="metadata5">
    <rdf:RDF>
      <cc:Work
         rdf:about="">
        <dc:format>image/svg+xml</dc:format>
        <dc:type
           rdf:resource="http://purl.org/dc/dcmitype/StillImage" />
        <dc:title></dc:title>
      </cc:Work>
    </rdf:RDF>
  </metadata>
  <g
     inkscape:label="Layer 1"
     inkscape:groupmode="layer"
     id="layer1"
     transform="translate(626.05268,-61.24698)">
    <g
       id="g1284"
       transform="matrix(0.86836385,0,0,0.86836385,-67.445998,12.925046)">
      <path
         id="path1107"
         d="m -445.47298,140.64676 c -0.3202,-0.11385 -0.62911,-0.38654 -0.79859,-0.70495 -0.12263,-0.23039 -0.14067,-0.30407 -0.13862,-0.56607 0.003,-0.36404 0.0381,-0.44475 0.48483,-1.11047 1.35705,-2.02224 2.55497,-4.41796 3.41662,-6.83291 0.18403,-0.5158 0.34636,-0.98466 0.36072,-1.04192 l 0.0261,-0.1041 -0.48471,-0.0274 c -1.28385,-0.0725 -2.52653,-0.34833 -3.61269,-0.80191 -2.29461,-0.95824 -4.15217,-2.70104 -5.12963,-4.81276 -2.1109,-4.56043 -0.0313,-9.80589 4.76591,-12.02124 0.96796,-0.447 1.95376,-0.73201 3.08181,-0.89099 0.61721,-0.087 2.08093,-0.0976 2.65358,-0.0193 2.37326,0.32459 4.35549,1.24154 5.93445,2.74519 0.54094,0.51514 0.83512,0.8518 1.23651,1.41509 1.25293,1.75825 1.824,3.96654 1.57785,6.10141 -0.0291,0.25241 -0.0741,0.6834 -0.1,0.95776 -0.59411,6.29932 -4.5134,12.42846 -10.71994,16.76425 -0.89269,0.62362 -1.29421,0.87461 -1.53393,0.95886 -0.28563,0.10037 -0.72434,0.0967 -1.02032,-0.009 z"
         style="fill:#0e1111;fill-opacity:1;stroke-width:0.04149562"
         inkscape:connector-curvature="0" />
      <path
         id="path1103"
         d="m -442.91873,103.47294 c -2.45473,-0.23735 -4.43143,-1.06503 -6.18277,-2.58882 -1.35414,-1.178199 -2.47389,-3.046368 -2.85377,-4.761183 -0.233,-1.051772 -0.27636,-2.319749 -0.11288,-3.300501 0.34172,-2.049962 1.33466,-3.838607 2.94032,-5.296556 0.79657,-0.723286 1.55946,-1.221549 2.5847,-1.688134 1.91893,-0.873299 4.01008,-1.158621 6.10539,-0.833037 4.22039,0.655792 7.54937,3.734739 8.25841,7.638147 0.1762,0.970009 0.18426,1.902238 0.0252,2.913203 -0.57906,3.680015 -3.53461,6.717171 -7.43603,7.641321 -0.84402,0.19993 -1.36969,0.2632 -2.31458,0.27857 -0.46276,0.008 -0.91904,0.006 -1.01397,-0.003 z"
         style="fill:#ff4418;fill-opacity:1;stroke-width:0.04149562"
         inkscape:connector-curvature="0" />
      <g
         style="fill:#0e1111;fill-opacity:1;stroke:#0e1111;stroke-opacity:1"
         id="g1261">
        <path
           id="path1138"
           d="m -624.36023,88.811373 c 0.69454,2.604523 1.04181,5.209047 1.38908,7.81357 2.43089,-2.604523 5.03542,-4.514507 7.98721,-5.903587 2.95179,-1.389079 6.07722,-2.083618 9.20265,-2.083618 3.4727,0 6.59812,0.868174 8.85538,2.778158 1.38908,1.04181 3.12543,2.951793 4.86178,5.729952 2.95179,-2.951793 5.72995,-5.035412 8.68174,-6.424492 2.95179,-1.389079 6.07722,-2.083618 9.37629,-2.083618 4.5145,0 8.16084,1.215444 11.11263,3.646333 2.77816,2.430888 4.34087,5.729951 4.34087,9.723559 v 19.27347 4.34087 c 0,2.60452 0.17364,4.51451 0.52091,5.72995 0.34727,1.21545 0.86817,2.25726 1.73634,2.9518 1.04181,1.04181 3.12543,1.73635 5.90359,2.25725 v 1.21544 h -25.00342 v -1.04181 c 2.25725,-0.34726 3.81996,-0.69453 4.86177,-1.21544 1.04181,-0.5209 1.73635,-1.56271 2.43089,-2.77816 0.34727,-0.86817 0.69454,-2.25725 0.86818,-3.9936 0.17363,-1.73635 0.17363,-4.34087 0.17363,-7.63994 V 110.3421 c 0,-4.16724 -0.17363,-7.29267 -0.34727,-9.20265 -0.34727,-1.909983 -0.69454,-3.646332 -1.56271,-4.861777 -1.73635,-3.299063 -4.86178,-4.861777 -9.20265,-4.861777 -4.68814,0 -8.16084,1.736349 -10.24446,5.209047 -1.90999,2.951793 -2.77816,7.639937 -2.77816,13.890797 v 10.93899 4.34088 c 0,2.60452 0.17363,4.5145 0.5209,5.72995 0.34727,1.21544 0.86818,2.25725 1.73635,2.95179 1.04181,1.04181 2.9518,1.73635 5.90359,2.25725 v 1.21545 h -25.00343 v -1.21545 c 2.25726,-0.34726 3.81997,-0.69453 4.86178,-1.21544 1.04181,-0.5209 1.73635,-1.56271 2.43089,-2.77816 0.34727,-0.86817 0.69454,-2.25725 0.86818,-3.9936 0.17363,-1.73635 0.17363,-4.34087 0.17363,-7.63994 v -10.41809 c 0,-4.34087 -0.17363,-7.63994 -0.34727,-9.72355 -0.34727,-2.083623 -0.86817,-3.819972 -1.56271,-5.035417 -0.86818,-1.389079 -2.08362,-2.430888 -3.4727,-3.125428 -1.56272,-0.694539 -3.29907,-1.215444 -5.03541,-1.215444 -2.08362,0 -4.16724,0.520905 -6.07723,1.562714 -1.90998,1.04181 -3.29906,2.430889 -4.5145,4.167238 -1.04181,1.562714 -1.73635,3.472697 -2.25726,5.556317 -0.5209,2.08362 -0.69454,5.03541 -0.69454,8.50811 v 10.41809 4.16724 c 0,2.60452 0.17364,4.51451 0.52091,5.72995 0.34727,1.21545 0.86817,2.25726 1.73635,2.9518 1.04181,1.04181 2.95179,1.73635 5.90358,2.25725 v 1.21544 h -25.17706 v -1.38908 c 2.25726,-0.34726 3.81997,-0.69453 4.86178,-1.21544 1.04181,-0.5209 1.73635,-1.56271 2.43089,-2.77816 0.34727,-0.86817 0.69454,-2.25725 0.86817,-3.9936 0.17364,-1.73635 0.17364,-4.34087 0.17364,-7.63994 v -14.06442 c 0,-3.81997 -0.17364,-6.59813 -0.34727,-8.160843 -0.17364,-1.562714 -0.52091,-2.778159 -1.21545,-3.819968 -0.69454,-1.041809 -1.38907,-1.736349 -2.25725,-2.257254 -0.86817,-0.520904 -2.25725,-0.694539 -3.9936,-0.868174 v -1.215445 z"
           stroke-miterlimit="10"
           inkscape:connector-curvature="0"
           style="fill:#0e1111;fill-opacity:1;stroke:#0e1111;stroke-width:5.20904684;stroke-miterlimit:10;stroke-opacity:1" />
      </g>
      <g
         style="fill:#0e1111;fill-opacity:1;stroke:#0e1111;stroke-opacity:1"
         id="g1264">
        <path
           id="path1140"
           d="m -547.21552,113.29389 c 0,-6.07722 2.25726,-11.63354 6.77176,-16.495312 5.55632,-5.903587 12.15445,-8.681745 19.79438,-8.681745 7.63994,0 14.23807,2.951793 19.79438,8.681745 4.51451,4.861772 6.77176,10.418092 6.77176,16.495312 0,6.07722 -2.08362,11.45991 -6.42449,16.14805 -5.38268,5.90359 -11.98081,8.68174 -20.14165,8.68174 -8.16084,0 -14.75896,-2.95179 -20.14164,-8.68174 -2.08362,-2.25725 -3.64634,-4.86178 -4.86178,-7.63994 -1.04181,-2.77816 -1.56272,-5.55631 -1.56272,-8.50811 z m 10.4181,-0.69454 c 0,6.59813 1.56271,12.15445 4.51451,16.66895 3.29906,5.03542 7.4663,7.63994 12.15444,7.63994 2.08362,0 3.9936,-0.52091 5.90358,-1.73635 1.90999,-1.21544 3.64634,-2.77816 5.03542,-4.68814 1.56271,-2.08362 2.60452,-4.86178 3.64633,-7.98721 0.86817,-3.12543 1.38908,-6.25085 1.38908,-9.20265 0,-3.12543 -0.52091,-6.25085 -1.38908,-9.37628 -1.04181,-3.12543 -2.25725,-5.903588 -3.81997,-8.160842 -3.12543,-4.340872 -6.94539,-6.424491 -11.4599,-6.424491 -4.34087,0 -7.98721,2.257254 -11.11264,6.771761 -3.29906,4.514512 -4.86177,9.897192 -4.86177,16.495312 z"
           stroke-miterlimit="10"
           inkscape:connector-curvature="0"
           style="fill:#0e1111;fill-opacity:1;stroke:#0e1111;stroke-width:5.20904684;stroke-miterlimit:10;stroke-opacity:1" />
      </g>
      <g
         style="fill:#0e1111;fill-opacity:1;stroke:#0e1111;stroke-opacity:1"
         id="g1267">
        <path
           id="path1142"
           d="m -475.04482,88.985007 h 14.4117 v 2.083619 h -14.4117 v 32.990634 c 0,3.9936 0.69454,6.77176 2.08362,8.50811 0.69454,0.86817 1.73635,1.73635 2.77816,2.25725 1.21544,0.52091 2.43089,0.86818 3.81997,0.86818 1.73635,0 3.12543,-0.34727 4.16723,-1.04181 1.21545,-0.69454 2.43089,-1.90999 3.81997,-3.81997 l 0.86818,0.69454 c -1.21545,2.25725 -2.9518,3.9936 -5.20905,5.03541 -2.25725,1.04181 -5.03541,1.56271 -8.50811,1.56271 -4.51451,0 -7.63994,-0.86817 -9.72355,-2.60452 -1.04181,-0.86817 -1.73635,-1.90998 -2.08362,-3.29906 -0.34727,-1.21545 -0.52091,-3.4727 -0.52091,-6.77176 V 91.068626 h -6.07722 v -0.868175 c 2.43089,-0.868174 4.68814,-2.257253 6.77176,-4.514507 1.21545,-1.389079 2.25726,-2.778158 2.95179,-4.167238 0.69454,-1.389079 1.56272,-3.125428 2.25726,-5.382681 l 0.5209,-1.909984 h 2.08362 z"
           stroke-miterlimit="10"
           inkscape:connector-curvature="0"
           style="fill:#0e1111;fill-opacity:1;stroke:#0e1111;stroke-width:5.20904684;stroke-miterlimit:10;stroke-opacity:1" />
      </g>
      <g
         style="fill:#0e1111;fill-opacity:1;stroke:#0e1111;stroke-opacity:1"
         id="g1272">
        <path
           id="path1144"
           d="m -407.31881,91.936798 v 29.691572 4.34087 c 0,2.60452 0.17364,4.51451 0.52091,5.72995 0.34727,1.21545 0.86817,2.25726 1.73635,2.9518 1.0418,1.04181 2.95179,1.73634 5.90358,2.25725 v 1.21544 h -25.17706 v -1.21544 c 2.25726,-0.34727 3.81997,-0.69454 4.86178,-1.21544 1.04181,-0.52091 1.73635,-1.56272 2.43089,-2.77816 0.34727,-0.86818 0.69454,-2.25726 0.86817,-3.99361 0.17364,-1.73634 0.17364,-4.34087 0.17364,-7.63993 V 91.936798 h -8.16084 V 89.85318 h 8.16084 V 75.962388 c 0,-3.299064 0.34727,-5.903587 1.21544,-7.813571 0.86818,-1.909984 2.43089,-3.646333 4.68814,-5.382682 1.90999,-1.389079 4.34088,-2.604523 7.29267,-3.299063 2.77816,-0.868174 5.90359,-1.215444 9.02901,-1.215444 2.9518,0 5.38269,0.520905 7.11903,1.562714 1.73635,1.041809 2.60453,2.430888 2.60453,4.167238 0,1.215444 -0.34727,2.083618 -1.04181,2.778158 -0.69454,0.694539 -1.56272,1.215444 -2.77816,1.215444 -1.04181,0 -1.90998,-0.34727 -2.60452,-0.868174 -0.69454,-0.520905 -1.56272,-1.389079 -2.25726,-2.778159 -1.04181,-1.736349 -1.90998,-2.951793 -2.60452,-3.472698 -0.69454,-0.520904 -1.56271,-0.868174 -2.77816,-0.868174 -1.38908,0 -2.77816,0.34727 -4.16724,0.868174 -1.21544,0.520905 -2.25725,1.389079 -2.95179,2.257254 -0.86817,1.041809 -1.38908,2.430889 -1.56271,4.167238 -0.34727,1.736349 -0.52091,4.167237 -0.52091,7.4663 V 89.85318 h 11.11264 v 2.083618 z"
           stroke-miterlimit="10"
           inkscape:connector-curvature="0"
           style="fill:#0e1111;fill-opacity:1;stroke:#0e1111;stroke-width:5.20904684;stroke-miterlimit:10;stroke-opacity:1" />
      </g>
    </g>
  </g>
</svg>
